<svg width="85" height="53" viewBox="0 0 85 53" fill="none" xmlns="http://www.w3.org/2000/svg">
<path d="M0 23V0H5.3125V7.66667H12.3958V0H17.7083V23H12.3958V13.4167H5.3125V23H0ZM27.4479 23V5.75H21.25V0H38.9583V5.75H32.7604V23H27.4479ZM42.5 23V0H65.5208V23H60.2083V5.75H56.6667V19.1667H51.3542V5.75H47.8125V23H42.5ZM70.8333 23V0H76.1458V17.25H85V23H70.8333Z" fill="black"/>
<path d="M22.0278 53V45.6667H27.1111V47.5H33.8889V43.8333H22.0278V31H38.9722V38.3333H33.8889V36.5H27.1111V40.1667H38.9722V53H22.0278ZM44.0556 53V45.6667H49.1389V47.5H55.9167V43.8333H44.0556V31H61V38.3333H55.9167V36.5H49.1389V40.1667H61V53H44.0556ZM0 53V31H16.9444V38.3333H11.8611V36.5H5.08333V47.5H11.8611V45.6667H16.9444V53H0Z" fill="black"/>
</svg>
